<?xml version="1.0" encoding="UTF-8" standalone="no"?>
<svg
   xmlns="http://www.w3.org/2000/svg"
   class="tank"
   width="30"
   height="30"
   viewBox="0 0 32 32"
   version="1.1"
   id="armyToken">
  <ellipse
     style="fill:#ffffff;stroke:#000000;stroke-width:0.96;fill-opacity:1"
     id="backdop"
     cx="16.544029"
     cy="16.047325"
     rx="14.480802"
     ry="13.602018"/>
  <g
     id="colorable"
     transform="matrix(0.70388996,0,0,0.72182207,4.7377819,4.4508468)">
    <path
       d="M 23.429688,10.289062 22.375,8.0625 C 22.292969,7.863281 22.097656,7.730469 21.878906,7.730469 H 21.34375 V 7.195312 c 0,-0.296874 -0.238281,-0.535156 -0.53125,-0.535156 h -4.269531 c -0.296875,0 -0.535157,0.238282 -0.535157,0.535156 V 7.730469 H 14.40625 c -0.03125,0 -0.06641,0.00391 -0.101562,0.00781 L 11.6875,8.261719 H 10.140625 C 9.84375,8.261719 9.605469,8.5 9.605469,8.796875 v 0.53125 H 4.269531 c 0,-0.292969 -0.238281,-0.53125 -0.535156,-0.53125 H 0.535156 C 0.238281,8.796875 0,9.035156 0,9.328125 v 1.070313 c 0,0.292968 0.238281,0.53125 0.535156,0.53125 h 3.199219 c 0.296875,0 0.535156,-0.238282 0.535156,-0.53125 h 5.335938 v 0.53125 c 0,0.296874 0.238281,0.535156 0.535156,0.535156 h 12.804687 c 0.296876,0 0.535157,-0.238282 0.535157,-0.535156 v -0.414063 c 0,-0.07813 -0.01953,-0.15625 -0.05078,-0.226563 z m 0,0"
       id="path2" />
    <path
       d="m 30.417969,14.132812 h -1.070313 v -1.066406 c 0,-0.296875 -0.238281,-0.535156 -0.53125,-0.535156 H 6.9375 c -0.296875,0 -0.535156,0.238281 -0.535156,0.535156 v 1.066406 H 2.667969 c -0.140625,0 -0.277344,0.05469 -0.378907,0.15625 L 0.15625,16.421875 c -0.2070312,0.210937 -0.2070312,0.546875 0,0.753906 l 1.601562,1.601563 c 0.207032,0.210937 0.546876,0.210937 0.753907,0 l 1.289062,-1.289063 c 0.097657,-0.09766 0.234375,-0.15625 0.375,-0.15625 h 26.242188 c 0.292969,0 0.53125,-0.238281 0.53125,-0.53125 v -2.136719 c 0,-0.292968 -0.238281,-0.53125 -0.53125,-0.53125 z m 0,0"
       id="path4" />
    <path
       d="m 31.921875,20.214844 c -0.265625,-1.085938 -1.085937,-1.8125 -2.039063,-1.8125 -0.0039,0 -0.01172,0 -0.01562,0 H 5.320312 c -0.953124,0 -1.769531,0.726562 -2.035156,1.8125 -0.246094,1.007812 0.046875,2.300781 1.238282,2.917968 l 3.734374,2.136719 c 0.082032,0.04297 0.171876,0.07031 0.265626,0.07031 h 18.15625 c 0.09375,0 0.1875,-0.02734 0.265624,-0.07031 l 3.71875,-2.125 c 1.207032,-0.628906 1.5,-1.921875 1.257813,-2.929687 z m 0,0"
       id="path6" />
  </g>
</svg>
